<?xml version="1.0" encoding="UTF-8" standalone="no"?><!DOCTYPE svg PUBLIC "-//W3C//DTD SVG 1.1//EN" "http://www.w3.org/Graphics/SVG/1.1/DTD/svg11.dtd"><svg width="100%" height="100%" viewBox="0 0 8000 4500" version="1.1" xmlns="http://www.w3.org/2000/svg" xmlns:xlink="http://www.w3.org/1999/xlink" xml:space="preserve" xmlns:serif="http://www.serif.com/" style="fill-rule:evenodd;clip-rule:evenodd;stroke-linejoin:round;stroke-miterlimit:2;"><g><g opacity="0.5"><path d="M3325.59,84.699c23.442,-23.442 36.612,-55.236 36.612,-88.388c0,-33.152 -13.17,-64.946 -36.612,-88.388c-229.94,-229.941 -844.865,-844.866 -1074.81,-1074.81c-23.442,-23.442 -55.237,-36.612 -88.389,-36.612c-33.152,0 -64.946,13.17 -88.388,36.612c-305.684,305.684 -1316.03,1316.03 -1621.72,1621.72c-23.442,23.443 -36.611,55.237 -36.611,88.389c0,33.152 13.169,64.946 36.611,88.388c229.94,229.94 844.866,844.866 1074.81,1074.81c23.442,23.442 55.236,36.612 88.388,36.612c33.152,0 64.947,-13.17 88.389,-36.612c305.684,-305.684 1316.03,-1316.03 1621.72,-1621.72Z" style="fill:#333;"/><path d="M2233.94,-91.218l-507.364,-507.364l-333.27,333.27l507.364,507.364l333.27,-333.27Z" style="fill:#616060;"/><path d="M3105.03,68.625l-478.546,-478.546l-333.27,333.27l478.546,478.546l333.27,-333.27Z" style="fill:#616060;"/><path d="M2749.41,424.245l-478.546,-478.546l-333.27,333.27l478.546,478.546l333.27,-333.27Z" style="fill:#616060;"/><path d="M1672.02,413.073l-478.547,-478.546l-666.54,666.54l478.546,478.546l666.541,-666.54Z" style="fill:#616060;"/><path d="M1828.93,1344.72l-478.546,-478.546l-279.176,279.177l478.546,478.546l279.176,-279.177Z" style="fill:#616060;"/><path d="M2216.3,957.354l-478.546,-478.547l-342.664,342.665l478.546,478.546l342.664,-342.664Z" style="fill:#616060;"/><path d="M1770.62,156.703l-399.665,-399.665l-31.552,31.552l399.665,399.665l31.552,-31.552Z" style="fill:#616060;"/><path d="M3181.28,-7.627l-478.546,-478.546l-31.553,31.552l478.546,478.547l31.553,-31.553Z" style="fill:#616060;"/><path d="M1560.61,149.164l-290.889,-290.889l-31.552,31.553l290.888,290.888l31.553,-31.552Z" style="fill:#616060;"/><path d="M1869.14,457.698l-290.889,-290.889l-31.552,31.553l290.889,290.889l31.552,-31.553Z" style="fill:#616060;"/><path d="M2286.45,875.008l-399.665,-399.665l-31.553,31.553l399.665,399.665l31.553,-31.553Z" style="fill:#616060;"/><path d="M1986.02,473.338l-665.682,-665.682l-31.553,31.553l665.682,665.682l31.553,-31.553Z" style="fill:#616060;"/><path d="M2036.64,422.72l-242.424,-242.424l-31.552,31.552l242.424,242.424l31.552,-31.552Z" style="fill:#616060;"/><path d="M2393.78,779.865l-333.552,-333.552l-31.552,31.552l333.552,333.552l31.552,-31.552Z" style="fill:#616060;"/><path d="M2177.31,664.626l-167.695,-167.695l-31.553,31.553l167.695,167.695l31.553,-31.553Z" style="fill:#616060;"/><path d="M2343.17,830.483l-142.264,-142.264l-31.553,31.553l142.264,142.264l31.553,-31.553Z" style="fill:#616060;"/><g><path d="M1953.66,-247.865c-17.029,-40.909 -49.276,-73.61 -89.944,-91.208c-86.603,-37.476 -187.34,2.409 -224.816,89.012c-37.477,86.603 2.408,187.34 89.012,224.816c86.603,37.476 187.34,-2.409 224.816,-89.012c18.009,-41.616 18.748,-88.682 2.055,-130.843l-79.485,31.471c8.347,21.08 7.977,44.613 -1.027,65.421c-18.738,43.302 -69.107,63.244 -112.408,44.506c-43.302,-18.738 -63.244,-69.106 -44.506,-112.408c18.738,-43.302 69.106,-63.244 112.408,-44.506c20.334,8.799 36.457,25.149 44.972,45.604l78.923,-32.853Z" style="fill:#696969;"/><path d="M1675.76,-303.898c-15.629,15.413 -28.145,33.691 -36.862,53.837c-37.477,86.603 2.408,187.34 89.012,224.816c86.603,37.476 187.34,-2.409 224.816,-89.012c18.009,-41.616 18.748,-88.682 2.055,-130.843l-79.485,31.471c8.347,21.08 7.977,44.613 -1.027,65.421c-18.738,43.302 -69.107,63.244 -112.408,44.506c-43.302,-18.738 -63.244,-69.106 -44.506,-112.408c4.359,-10.073 10.616,-19.212 18.431,-26.918l-60.026,-60.87Z" style="fill:#333;"/></g><g><path d="M2350.34,522.004c44.004,-5.222 84.261,-27.324 112.287,-61.648c59.682,-73.093 48.794,-180.89 -24.299,-240.572c-73.094,-59.682 -180.891,-48.794 -240.573,24.299c-59.682,73.094 -48.793,180.89 24.3,240.572c35.124,28.68 80.203,42.232 125.319,37.675l-8.592,-85.055c-22.558,2.278 -45.097,-4.498 -62.659,-18.838c-36.547,-29.841 -41.991,-83.739 -12.15,-120.286c29.841,-36.546 83.74,-41.99 120.286,-12.149c36.547,29.841 41.991,83.739 12.15,120.286c-14.013,17.162 -34.142,28.213 -56.143,30.824l10.074,84.892Z" style="fill:#696969;"/><path d="M2480.07,269.936c-10.564,-19.242 -24.734,-36.269 -41.737,-50.152c-73.094,-59.682 -180.891,-48.794 -240.573,24.299c-59.682,73.094 -48.793,180.89 24.3,240.572c35.124,28.68 80.203,42.232 125.319,37.675l-8.592,-85.055c-22.558,2.278 -45.097,-4.498 -62.659,-18.838c-36.547,-29.841 -41.991,-83.739 -12.15,-120.286c29.841,-36.546 83.74,-41.99 120.286,-12.149c8.502,6.941 15.587,15.455 20.869,25.076l74.937,-41.142Z" style="fill:#333;"/></g><g><path d="M2541.43,-88.634c-19.936,39.575 -23.729,85.344 -10.579,127.66c28.003,90.113 123.899,140.539 214.012,112.536c90.114,-28.004 140.539,-123.899 112.536,-214.013c-28.003,-90.113 -123.899,-140.538 -214.012,-112.535c-43.303,13.457 -79.487,43.564 -100.591,83.699l75.664,39.787c10.553,-20.067 28.644,-35.121 50.296,-41.849c45.057,-14.002 93.004,11.211 107.006,56.268c14.002,45.056 -11.211,93.004 -56.268,107.006c-45.056,14.001 -93.004,-11.211 -107.006,-56.268c-6.575,-21.158 -4.679,-44.043 5.289,-63.83l-76.347,-38.461Z" style="fill:#696969;"/><path d="M2680,158.68c21.876,1.812 43.896,-0.604 64.858,-7.118c90.114,-28.004 140.539,-123.899 112.536,-214.013c-28.003,-90.113 -123.899,-140.538 -214.012,-112.535c-43.303,13.457 -79.487,43.564 -100.591,83.699l75.664,39.787c10.553,-20.067 28.644,-35.121 50.296,-41.849c45.057,-14.002 93.004,11.211 107.006,56.268c14.002,45.056 -11.211,93.004 -56.268,107.006c-10.481,3.257 -21.491,4.465 -32.429,3.559l-7.06,85.196Z" style="fill:#333;"/></g></g><g opacity="0.5"><path d="M1260.58,2149.72c23.442,-23.442 36.611,-55.236 36.611,-88.388c0,-33.152 -13.169,-64.947 -36.611,-88.389c-229.941,-229.94 -844.866,-844.865 -1074.81,-1074.81c-23.442,-23.442 -55.236,-36.611 -88.388,-36.611c-33.153,0 -64.947,13.169 -88.389,36.612c-305.684,305.684 -1316.03,1316.03 -1621.72,1621.72c-23.443,23.442 -36.612,55.236 -36.612,88.389c0,33.152 13.169,64.946 36.611,88.388c229.941,229.94 844.866,844.865 1074.81,1074.81c23.442,23.442 55.237,36.611 88.389,36.611c33.152,0 64.946,-13.169 88.388,-36.611c305.684,-305.685 1316.03,-1316.03 1621.72,-1621.72Z" style="fill:#333;"/><path d="M524.543,1618.18l-507.364,-507.364l-333.27,333.27l507.364,507.364l333.27,-333.27Z" style="fill:#616060;"/><path d="M168.924,1973.8l-507.364,-507.364l-333.271,333.27l507.365,507.364l333.27,-333.27Z" style="fill:#616060;"/><path d="M1040.01,2133.64l-478.546,-478.547l-333.27,333.271l478.546,478.546l333.27,-333.27Z" style="fill:#616060;"/><path d="M684.386,2489.26l-478.546,-478.546l-333.27,333.27l478.546,478.547l333.27,-333.271Z" style="fill:#616060;"/><path d="M151.277,3022.37l-478.546,-478.546l-342.664,342.665l478.546,478.546l342.664,-342.665Z" style="fill:#616060;"/><path d="M600.795,1541.93l-507.364,-507.364l-31.552,31.552l507.364,507.365l31.552,-31.553Z" style="fill:#616060;"/><path d="M1116.26,2057.39l-478.546,-478.546l-31.553,31.552l478.547,478.546l31.552,-31.552Z" style="fill:#616060;"/><path d="M221.436,2940.03l-399.665,-399.665l-31.553,31.553l399.665,399.665l31.553,-31.553Z" style="fill:#616060;"/><path d="M328.767,2844.88l-333.552,-333.552l-31.553,31.553l333.552,333.552l31.553,-31.553Z" style="fill:#616060;"/><path d="M112.291,2729.64l-167.695,-167.695l-31.553,31.552l167.696,167.696l31.552,-31.553Z" style="fill:#616060;"/><path d="M278.148,2895.5l-142.264,-142.264l-31.552,31.552l142.263,142.264l31.553,-31.552Z" style="fill:#616060;"/><g><path d="M41.506,1681.42c42.111,13.792 87.932,10.694 127.805,-8.638c84.91,-41.169 120.422,-143.53 79.253,-228.439c-41.169,-84.91 -143.529,-120.422 -228.439,-79.253c-84.91,41.169 -120.422,143.529 -79.253,228.439c19.783,40.803 54.965,72.075 97.806,86.938l28.02,-80.766c-21.42,-7.431 -39.011,-23.067 -48.903,-43.468c-20.585,-42.455 -2.829,-93.636 39.626,-114.22c42.455,-20.585 93.635,-2.829 114.22,39.626c20.585,42.455 2.829,93.635 -39.626,114.22c-19.937,9.666 -42.847,11.215 -63.903,4.319l-26.606,81.242Z" style="fill:#696969;"/><path d="M265.305,1507.41c-1.481,-21.901 -7.164,-43.312 -16.741,-63.063c-41.169,-84.91 -143.529,-120.422 -228.439,-79.253c-84.91,41.169 -120.422,143.529 -79.253,228.439c19.783,40.803 54.965,72.075 97.806,86.938l28.02,-80.766c-21.42,-7.431 -39.011,-23.067 -48.903,-43.468c-20.585,-42.455 -2.829,-93.636 39.626,-114.22c42.455,-20.585 93.635,-2.829 114.22,39.626c4.788,9.876 7.63,20.581 8.37,31.532l85.294,-5.765Z" style="fill:#333;"/></g><g><path d="M285.321,2587.02c44.004,-5.222 84.261,-27.324 112.288,-61.648c59.682,-73.094 48.793,-180.891 -24.3,-240.573c-73.093,-59.682 -180.89,-48.794 -240.572,24.3c-59.682,73.093 -48.794,180.89 24.299,240.572c35.124,28.68 80.203,42.232 125.319,37.675l-8.591,-85.056c-22.558,2.279 -45.097,-4.497 -62.66,-18.837c-36.546,-29.841 -41.99,-83.739 -12.149,-120.286c29.841,-36.547 83.739,-41.991 120.286,-12.15c36.546,29.841 41.991,83.74 12.15,120.286c-14.013,17.162 -34.142,28.213 -56.144,30.824l10.074,84.893Z" style="fill:#696969;"/><path d="M415.046,2334.95c-10.564,-19.241 -24.734,-36.269 -41.737,-50.152c-73.093,-59.682 -180.89,-48.794 -240.572,24.3c-59.682,73.093 -48.794,180.89 24.299,240.572c35.124,28.68 80.203,42.232 125.319,37.675l-8.591,-85.056c-22.558,2.279 -45.097,-4.497 -62.66,-18.837c-36.546,-29.841 -41.99,-83.739 -12.149,-120.286c29.841,-36.547 83.739,-41.991 120.286,-12.15c8.501,6.942 15.586,15.456 20.868,25.076l74.937,-41.142Z" style="fill:#333;"/></g><g><path d="M476.409,1976.38c-19.936,39.575 -23.729,85.344 -10.579,127.66c28.004,90.113 123.899,140.539 214.013,112.535c90.113,-28.003 140.539,-123.899 112.535,-214.012c-28.003,-90.113 -123.899,-140.539 -214.012,-112.535c-43.303,13.456 -79.487,43.564 -100.591,83.699l75.665,39.787c10.552,-20.067 28.644,-35.121 50.295,-41.849c45.057,-14.002 93.005,11.211 107.006,56.267c14.002,45.057 -11.211,93.005 -56.267,107.006c-45.057,14.002 -93.005,-11.211 -107.007,-56.267c-6.575,-21.159 -4.678,-44.043 5.29,-63.83l-76.348,-38.461Z" style="fill:#696969;"/><path d="M614.985,2223.7c21.876,1.813 43.896,-0.604 64.858,-7.118c90.113,-28.003 140.539,-123.899 112.535,-214.012c-28.003,-90.113 -123.899,-140.539 -214.012,-112.535c-43.303,13.456 -79.487,43.564 -100.591,83.699l75.665,39.787c10.552,-20.067 28.644,-35.121 50.295,-41.849c45.057,-14.002 93.005,11.211 107.006,56.267c14.002,45.057 -11.211,93.005 -56.267,107.006c-10.481,3.257 -21.492,4.466 -32.429,3.559l-7.06,85.196Z" style="fill:#333;"/></g></g><g><g><path d="M2661.08,3550.22c23.442,-23.442 36.612,-55.236 36.612,-88.388c0,-33.152 -13.17,-64.947 -36.612,-88.389c-229.94,-229.94 -844.866,-844.865 -1074.81,-1074.81c-23.442,-23.442 -55.236,-36.612 -88.388,-36.612c-33.152,0 -64.947,13.17 -88.389,36.612c-305.684,305.684 -1316.03,1316.03 -1621.72,1621.72c-23.442,23.442 -36.612,55.237 -36.612,88.389c0,33.152 13.17,64.946 36.612,88.388c229.94,229.94 844.865,844.866 1074.81,1074.81c23.443,23.442 55.237,36.612 88.389,36.611c33.152,0 64.946,-13.169 88.388,-36.611c305.684,-305.684 1316.03,-1316.03 1621.72,-1621.72Z" style="fill:#333;"/><path d="M2440.51,3534.15l-1022.83,-1022.83l-666.541,666.54l1022.83,1022.83l666.54,-666.54Z" style="fill:#616060;"/><path d="M1164.42,4810.24l-478.546,-478.546l-279.177,279.177l478.546,478.546l279.177,-279.177Z" style="fill:#616060;"/><path d="M833.847,4109.89l-507.364,-507.364l-464.065,464.066l507.364,507.364l464.065,-464.066Z" style="fill:#616060;"/><path d="M1551.79,4422.88l-478.547,-478.547l-342.664,342.665l478.546,478.546l342.665,-342.664Z" style="fill:#616060;"/><path d="M1106.11,3622.23l-399.665,-399.665l-31.553,31.552l399.665,399.665l31.553,-31.552Z" style="fill:#616060;"/><path d="M2001.3,2942.44l-507.365,-507.364l-31.552,31.553l507.364,507.364l31.553,-31.553Z" style="fill:#616060;"/><path d="M2516.76,3457.9l-478.546,-478.546l-31.552,31.552l478.546,478.547l31.552,-31.553Z" style="fill:#616060;"/><path d="M896.099,3614.69l-290.889,-290.889l-31.553,31.552l290.889,290.889l31.553,-31.552Z" style="fill:#616060;"/><path d="M794.861,3715.93l-290.889,-290.889l-31.552,31.553l290.889,290.888l31.552,-31.552Z" style="fill:#616060;"/><path d="M910.099,4033.64l-290.888,-290.889l-31.553,31.552l290.889,290.889l31.552,-31.552Z" style="fill:#616060;"/><path d="M1011.34,3932.4l-198.83,-198.83l-31.553,31.553l198.83,198.83l31.553,-31.553Z" style="fill:#616060;"/><path d="M601.565,3725.11l-198.83,-198.83l-31.552,31.553l198.83,198.83l31.552,-31.553Z" style="fill:#616060;"/><path d="M960.718,3983.02l-84.106,-84.106l-31.553,31.552l84.106,84.106l31.553,-31.552Z" style="fill:#616060;"/><path d="M1061.95,3881.78l-507.364,-507.364l-31.552,31.552l507.364,507.364l31.552,-31.552Z" style="fill:#616060;"/><path d="M1204.63,3923.22l-290.889,-290.889l-31.553,31.553l290.889,290.888l31.553,-31.552Z" style="fill:#616060;"/><path d="M1621.94,4340.53l-399.665,-399.665l-31.552,31.553l399.665,399.665l31.552,-31.553Z" style="fill:#616060;"/><path d="M1321.51,3938.86l-665.682,-665.682l-31.552,31.553l665.682,665.682l31.552,-31.553Z" style="fill:#616060;"/><path d="M853.019,3875.32l-399.665,-399.665l-31.553,31.552l399.665,399.665l31.553,-31.552Z" style="fill:#616060;"/><path d="M1372.13,3888.25l-242.424,-242.425l-31.553,31.553l242.424,242.424l31.553,-31.552Z" style="fill:#616060;"/><path d="M1729.27,4245.39l-333.552,-333.552l-31.553,31.553l333.552,333.552l31.553,-31.553Z" style="fill:#616060;"/><path d="M1512.8,4130.15l-167.695,-167.695l-31.552,31.553l167.695,167.695l31.552,-31.553Z" style="fill:#616060;"/><path d="M1678.65,4296.01l-142.264,-142.264l-31.552,31.553l142.264,142.264l31.552,-31.553Z" style="fill:#616060;"/></g><path d="M1259.59,2925.6l-58.454,-58.454l-363.924,363.924l58.454,58.454l363.924,-363.924Z" style="fill:#333;"/><path d="M1270.36,3189.05l-58.455,-58.454l-237.587,237.588l58.454,58.454l237.588,-237.588Z" style="fill:#333;"/><path d="M1601.69,3131.94l-58.454,-58.455l-431.807,431.807l58.454,58.454l431.807,-431.806Z" style="fill:#333;"/><path d="M1885.88,3121.97l-58.454,-58.454l-578.884,578.884l58.454,58.454l578.884,-578.884Z" style="fill:#333;"/><path d="M1681.69,3600.38l-58.454,-58.454l-237.587,237.588l58.454,58.454l237.587,-237.588Z" style="fill:#333;"/><path d="M1782.97,3773.31l-58.454,-58.454l-201.761,201.76l58.454,58.455l201.761,-201.761Z" style="fill:#333;"/><path d="M1840.88,3989.62l-58.454,-58.454l-122.565,122.565l58.454,58.454l122.565,-122.565Z" style="fill:#333;"/><path d="M507.393,4087.56c-0.773,-44.306 -18.718,-86.581 -50.052,-117.914c-66.725,-66.726 -175.071,-66.726 -241.796,0c-66.726,66.725 -66.726,175.071 0,241.796c66.725,66.726 175.071,66.726 241.796,0c32.064,-32.064 50.078,-75.552 50.078,-120.898l-85.488,0c0,22.673 -9.007,44.417 -25.039,60.449c-33.363,33.363 -87.535,33.363 -120.898,0c-33.363,-33.363 -33.363,-87.535 0,-120.898c33.363,-33.363 87.535,-33.363 120.898,0c15.667,15.667 24.639,36.804 25.026,58.957l85.475,-1.492Z" style="fill:#696969;"/><path d="M269.637,3933.16c-20.205,8.577 -38.571,20.964 -54.092,36.486c-66.726,66.725 -66.726,175.071 0,241.796c66.725,66.726 175.071,66.726 241.796,0c32.064,-32.064 50.078,-75.552 50.078,-120.898l-85.488,0c0,22.673 -9.007,44.417 -25.039,60.449c-33.363,33.363 -87.535,33.363 -120.898,0c-33.363,-33.363 -33.363,-87.535 0,-120.898c7.761,-7.761 16.943,-13.955 27.046,-18.243l-33.403,-78.692Z" style="fill:#333;"/><path d="M1362.38,4351.2l-318.645,-318.644l-34.756,34.756l318.645,318.644l34.756,-34.756Z" style="fill:#696969;"/><path d="M1217.95,4308.73l-225.19,-225.19l-34.756,34.756l225.191,225.19l34.755,-34.756Z" style="fill:#696969;"/><path d="M1109.49,4302.21l-167.695,-167.695l-34.756,34.756l167.696,167.695l34.755,-34.756Z" style="fill:#696969;"/><path d="M1267.91,4562.59l-377.099,-377.099l-34.756,34.756l377.099,377.098l34.756,-34.755Z" style="fill:#333;"/><path d="M1034.91,4431.53l-195.069,-195.069l-34.756,34.756l195.069,195.068l34.756,-34.755Z" style="fill:#696969;"/></g><g><path d="M7520.24,4279.35c23.442,-23.442 36.612,-55.236 36.612,-88.388c0,-33.152 -13.17,-64.947 -36.612,-88.389c-229.94,-229.94 -844.865,-844.865 -1074.81,-1074.81c-23.442,-23.442 -55.236,-36.611 -88.388,-36.611c-33.152,0 -64.946,13.169 -88.388,36.611c-305.685,305.685 -1316.03,1316.03 -1621.72,1621.72c-23.442,23.442 -36.612,55.236 -36.612,88.388c0,33.153 13.17,64.947 36.612,88.389c229.94,229.94 844.865,844.865 1074.81,1074.81c23.442,23.442 55.236,36.611 88.388,36.611c33.152,0 64.946,-13.169 88.388,-36.611c305.684,-305.685 1316.03,-1316.03 1621.72,-1621.72Z" style="fill:#333;"/><path d="M6013.17,4702.96l-599.423,-599.423l-666.54,666.541l599.423,599.423l666.54,-666.541Z" style="fill:#616060;"/><path d="M5965.27,4351.35l-399.665,-399.665l-31.552,31.553l399.665,399.665l31.552,-31.553Z" style="fill:#616060;"/><path d="M6860.46,3671.56l-507.364,-507.364l-31.553,31.552l507.364,507.365l31.553,-31.553Z" style="fill:#616060;"/><path d="M7375.92,4187.02l-478.546,-478.546l-31.552,31.552l478.546,478.546l31.552,-31.552Z" style="fill:#616060;"/><path d="M5755.26,4343.81l-290.889,-290.888l-31.553,31.552l290.889,290.889l31.553,-31.553Z" style="fill:#616060;"/><path d="M6063.79,4652.35l-290.889,-290.889l-31.552,31.552l290.888,290.889l31.553,-31.552Z" style="fill:#616060;"/><path d="M6180.67,4667.99l-665.682,-665.682l-31.552,31.553l665.682,665.682l31.552,-31.553Z" style="fill:#616060;"/><path d="M6231.29,4617.37l-242.424,-242.424l-31.553,31.553l242.425,242.424l31.552,-31.553Z" style="fill:#616060;"/><path d="M7106.74,4444.02c0,0 -8.571,-53.457 -18.161,-113.265c-6.861,-42.787 -30.585,-81.04 -65.865,-106.203c-35.281,-25.163 -79.174,-35.135 -121.864,-27.688c-74.574,13.01 -163.347,28.497 -239.981,41.867c-101.533,17.713 -199.745,-45.176 -226.14,-144.805c-5.376,-20.292 -10.731,-40.506 -15.766,-59.508c-17.239,-65.071 -72.936,-112.691 -139.895,-119.61c-26.923,-2.781 -56.739,-5.862 -87.087,-8.998c-58.984,-6.094 -112.161,-38.223 -144.992,-87.603c-32.831,-49.38 -41.882,-110.846 -24.68,-167.594c6.757,-22.291 13.5,-44.536 19.969,-65.874c5.485,-18.097 -2.043,-37.606 -18.264,-47.326c-16.221,-9.72 -36.974,-7.159 -50.346,6.212c-137.231,137.232 -346.937,346.937 -346.937,346.937l1016.73,1016.73l463.275,-463.276Z" style="fill:#616060;"/></g><g opacity="0.5"><path d="M8191.63,876.644c23.442,-23.442 36.612,-55.237 36.612,-88.389c0,-33.152 -13.169,-64.946 -36.612,-88.388c-229.94,-229.94 -844.865,-844.866 -1074.81,-1074.81c-23.442,-23.442 -55.237,-36.611 -88.389,-36.611c-33.152,0 -64.946,13.169 -88.388,36.611c-305.684,305.684 -1316.03,1316.03 -1621.72,1621.72c-23.442,23.442 -36.611,55.236 -36.611,88.388c0,33.152 13.169,64.947 36.611,88.389c229.941,229.94 844.866,844.865 1074.81,1074.81c23.442,23.442 55.236,36.612 88.388,36.612c33.153,0 64.947,-13.17 88.389,-36.612c305.684,-305.684 1316.03,-1316.03 1621.72,-1621.72Z" style="fill:#333;"/><path d="M6684.56,1300.26l-599.423,-599.423l-666.541,666.54l599.423,599.423l666.541,-666.54Z" style="fill:#616060;"/><path d="M7101.87,1717.57l-377.099,-377.099l-666.54,666.54l377.099,377.099l666.54,-666.54Z" style="fill:#616060;"/><path d="M6636.66,948.647l-399.665,-399.665l-31.553,31.553l399.665,399.665l31.553,-31.553Z" style="fill:#616060;"/><path d="M7531.85,268.855l-507.364,-507.364l-31.552,31.552l507.364,507.364l31.552,-31.552Z" style="fill:#616060;"/><path d="M8047.31,784.318l-478.546,-478.547l-31.553,31.553l478.546,478.546l31.553,-31.552Z" style="fill:#616060;"/><path d="M6426.64,941.108l-290.889,-290.889l-31.552,31.553l290.889,290.889l31.552,-31.553Z" style="fill:#616060;"/><path d="M6735.18,1249.64l-290.888,-290.889l-31.553,31.552l290.889,290.889l31.552,-31.552Z" style="fill:#616060;"/><path d="M7152.49,1666.95l-399.665,-399.665l-31.553,31.552l399.665,399.665l31.553,-31.552Z" style="fill:#616060;"/><path d="M6852.06,1265.28l-665.682,-665.682l-31.553,31.552l665.682,665.682l31.553,-31.552Z" style="fill:#616060;"/><path d="M6902.67,1214.66l-242.425,-242.424l-31.552,31.553l242.424,242.424l31.553,-31.553Z" style="fill:#616060;"/><path d="M7259.82,1571.81l-333.552,-333.552l-31.552,31.553l333.552,333.552l31.552,-31.553Z" style="fill:#616060;"/><path d="M7043.34,1456.57l-167.695,-167.695l-31.553,31.552l167.695,167.695l31.553,-31.552Z" style="fill:#616060;"/><path d="M7209.2,1622.43l-142.264,-142.264l-31.553,31.552l142.264,142.264l31.553,-31.552Z" style="fill:#616060;"/><path d="M7778.13,1041.31c0,0 -8.571,-53.457 -18.161,-113.265c-6.861,-42.788 -30.584,-81.041 -65.865,-106.203c-35.28,-25.163 -79.174,-35.136 -121.863,-27.688c-74.575,13.01 -163.347,28.497 -239.982,41.867c-101.532,17.713 -199.745,-45.176 -226.14,-144.805c-5.376,-20.292 -10.731,-40.506 -15.765,-59.508c-17.24,-65.071 -72.936,-112.691 -139.896,-119.61c-26.923,-2.782 -56.739,-5.862 -87.087,-8.998c-58.984,-6.094 -112.16,-38.223 -144.991,-87.603c-32.831,-49.38 -41.883,-110.846 -24.681,-167.594c6.757,-22.291 13.501,-44.536 19.969,-65.874c5.486,-18.097 -2.043,-37.606 -18.263,-47.326c-16.221,-9.72 -36.975,-7.16 -50.346,6.212c-137.232,137.232 -346.937,346.937 -346.937,346.937l1016.73,1016.73l463.275,-463.275Z" style="fill:#616060;"/></g><g><path d="M9536.19,2277.15c23.442,-23.442 36.612,-55.236 36.612,-88.388c0,-33.152 -13.17,-64.947 -36.612,-88.389c-229.94,-229.94 -844.866,-844.865 -1074.81,-1074.81c-23.442,-23.442 -55.236,-36.611 -88.388,-36.611c-33.152,0 -64.947,13.169 -88.389,36.612c-305.684,305.684 -1316.03,1316.03 -1621.72,1621.72c-23.442,23.442 -36.612,55.236 -36.612,88.388c0,33.153 13.17,64.947 36.612,88.389c229.94,229.94 844.865,844.865 1074.81,1074.81c23.443,23.442 55.237,36.611 88.389,36.611c33.152,0 64.946,-13.169 88.388,-36.611c305.684,-305.685 1316.03,-1316.03 1621.72,-1621.72Z" style="fill:#333;"/><path d="M9315.62,2261.08l-1022.83,-1022.83l-666.541,666.54l1022.83,1022.83l666.54,-666.54Z" style="fill:#616060;"/><path d="M7882.61,2605.53l-478.546,-478.546l-666.54,666.54l478.546,478.546l666.54,-666.54Z" style="fill:#616060;"/><path d="M8039.52,3537.17l-478.546,-478.546l-279.177,279.176l478.546,478.547l279.177,-279.177Z" style="fill:#616060;"/><path d="M8426.89,3149.81l-478.547,-478.546l-342.664,342.664l478.546,478.547l342.665,-342.665Z" style="fill:#616060;"/><path d="M7981.22,2349.15l-399.665,-399.665l-31.553,31.553l399.665,399.665l31.553,-31.553Z" style="fill:#616060;"/><path d="M7771.2,2341.62l-290.889,-290.888l-31.553,31.552l290.889,290.889l31.553,-31.553Z" style="fill:#616060;"/><path d="M8079.74,2650.15l-290.889,-290.889l-31.553,31.552l290.889,290.889l31.553,-31.552Z" style="fill:#616060;"/><path d="M8196.61,2665.79l-665.682,-665.682l-31.552,31.553l665.682,665.682l31.552,-31.553Z" style="fill:#616060;"/><path d="M8247.23,2615.17l-242.424,-242.424l-31.553,31.553l242.424,242.424l31.553,-31.553Z" style="fill:#616060;"/></g></g></svg>